<svg width="227" height="38" viewBox="0 0 227 38" fill="none" xmlns="http://www.w3.org/2000/svg">
<path d="M33.7517 36.58C33.133 36.58 32.5723 36.4447 32.0697 36.174C31.567 35.942 31.3157 35.4007 31.3157 34.55C31.3157 33.8153 31.7023 32.752 32.4757 31.36C33.249 29.968 34.293 28.3827 35.6077 26.604C36.9223 24.7867 38.3723 22.892 39.9577 20.92C41.5817 18.948 43.2443 17.034 44.9457 15.178C46.647 13.2833 48.271 11.5433 49.8177 9.958C51.3643 8.334 52.737 6.98066 53.9357 5.898C55.1343 4.81533 56.0237 4.13866 56.6037 3.868C56.797 3.79066 56.9323 3.79066 57.0097 3.868C57.087 3.90667 56.9903 3.984 56.7197 4.1C55.5597 4.64133 54.1483 5.56933 52.4857 6.884C50.8617 8.16 49.083 9.68733 47.1497 11.466C45.255 13.2447 43.3023 15.1393 41.2917 17.15C39.281 19.1607 37.3283 21.1713 35.4337 23.182C33.5777 25.154 31.8377 27.01 30.2137 28.75C28.6283 30.4513 27.275 31.9207 26.1537 33.158C25.0323 34.3953 24.259 35.246 23.8337 35.71C23.331 36.2127 22.9057 36.406 22.5577 36.29C22.2097 36.174 22.0357 35.7487 22.0357 35.014C22.0357 34.0087 22.345 32.752 22.9637 31.244C23.5823 29.736 24.4137 28.0927 25.4577 26.314C26.5017 24.5353 27.6617 22.718 28.9377 20.862C30.2137 19.006 31.4897 17.208 32.7657 15.468C34.0803 13.6893 35.3177 12.0847 36.4777 10.654C37.6763 9.22333 38.6817 8.044 39.4937 7.116C40.3443 6.14933 40.905 5.55 41.1757 5.318C41.3303 5.202 41.5817 5.12467 41.9297 5.086C42.2777 5.04733 42.297 5.12466 41.9877 5.318C41.2143 5.70466 40.151 6.55533 38.7977 7.87C37.4443 9.18467 35.8977 10.7893 34.1577 12.684C32.4177 14.54 30.5423 16.5507 28.5317 18.716C26.5597 20.8813 24.5103 23.008 22.3837 25.096C20.257 27.184 18.1497 29.098 16.0617 30.838C14.0123 32.5393 12.0403 33.912 10.1457 34.956C8.25101 36 6.53034 36.522 4.98367 36.522C3.43701 36.522 2.35434 36.2513 1.73567 35.71C1.117 35.13 0.807671 34.55 0.807671 33.97C0.807671 33.1967 1.02034 32.636 1.44567 32.288C1.87101 31.9013 2.27701 31.708 2.66367 31.708C3.55301 31.708 3.99767 32.0173 3.99767 32.636C3.99767 33.1 3.84301 33.4287 3.53367 33.622C3.22434 33.7767 2.973 33.854 2.77967 33.854C2.43167 33.854 2.16101 33.8153 1.96767 33.738C1.77434 33.622 1.67767 33.564 1.67767 33.564C1.67767 33.6413 1.71634 33.8733 1.79367 34.26C1.83234 34.6467 2.08367 35.0333 2.54767 35.42C2.97301 35.768 3.74634 35.942 4.86767 35.942C6.45301 35.942 8.21234 35.3813 10.1457 34.26C12.1177 33.1 14.1863 31.592 16.3517 29.736C18.5557 27.88 20.7597 25.8307 22.9637 23.588C25.2063 21.3067 27.3717 19.0253 29.4597 16.744C31.5477 14.4627 33.5003 12.3553 35.3177 10.422C37.135 8.48867 38.7203 6.90333 40.0737 5.666C41.427 4.39 42.4517 3.67466 43.1477 3.52C43.689 3.404 43.9597 3.404 43.9597 3.52C43.9597 3.636 43.863 3.79066 43.6697 3.984C43.167 4.37066 42.471 5.144 41.5817 6.304C40.6923 7.42533 39.687 8.81733 38.5657 10.48C37.4443 12.104 36.2457 13.8827 34.9697 15.816C33.7323 17.7493 32.495 19.702 31.2577 21.674C30.0203 23.646 28.8603 25.5407 27.7777 27.358C26.7337 29.1367 25.825 30.722 25.0517 32.114C24.2783 33.506 23.737 34.5693 23.4277 35.304C23.389 35.3813 23.2343 35.4973 22.9637 35.652C22.693 35.8067 22.577 35.8647 22.6157 35.826C22.6543 35.7873 23.0797 35.304 23.8917 34.376C24.7037 33.448 25.7863 32.23 27.1397 30.722C28.5317 29.1753 30.117 27.474 31.8957 25.618C33.6743 23.7233 35.5497 21.7707 37.5217 19.76C39.4937 17.7493 41.4463 15.7967 43.3797 13.902C45.3517 11.9687 47.227 10.248 49.0057 8.74C50.7843 7.19333 52.3503 5.93666 53.7037 4.97C55.0957 4.00333 56.1783 3.48133 56.9517 3.404C57.377 3.32667 57.5703 3.38467 57.5317 3.578C57.5317 3.73267 57.4543 3.84867 57.2997 3.926C56.449 4.42867 55.3857 5.35667 54.1097 6.71C52.8337 8.02467 51.4417 9.59067 49.9337 11.408C48.4257 13.2253 46.879 15.1587 45.2937 17.208C43.7083 19.2573 42.181 21.2873 40.7117 23.298C39.281 25.3087 37.9857 27.1647 36.8257 28.866C35.7043 30.5287 34.7957 31.9207 34.0997 33.042C33.4423 34.1247 33.1137 34.782 33.1137 35.014C33.1137 35.2847 33.249 35.5167 33.5197 35.71C33.829 35.9033 34.177 36 34.5637 36C35.453 36 36.323 35.7873 37.1737 35.362C38.063 34.9367 38.817 34.5113 39.4357 34.086C40.0543 33.622 40.383 33.3707 40.4217 33.332C40.615 33.0613 40.8083 33.0807 41.0017 33.39C41.195 33.6993 41.079 33.9507 40.6537 34.144C40.6537 34.144 40.3057 34.3567 39.6097 34.782C38.9523 35.1687 38.1017 35.5747 37.0577 36C36.0137 36.3867 34.9117 36.58 33.7517 36.58ZM60.3256 25.85C60.171 26.1593 59.939 26.43 59.6296 26.662C59.359 26.894 59.1463 27.0487 58.9916 27.126C58.8756 27.1647 58.9143 27.0487 59.1076 26.778C59.8036 25.9273 60.2483 25.1347 60.4416 24.4C60.6736 23.6653 60.6736 23.0853 60.4416 22.66C60.2483 22.196 59.8616 21.964 59.2816 21.964C58.5083 21.964 57.5996 22.2733 56.5556 22.892C55.5116 23.5107 54.429 24.3227 53.3076 25.328C52.225 26.3333 51.2003 27.416 50.2336 28.576C49.3056 29.6973 48.5516 30.7993 47.9716 31.882C47.3916 32.926 47.1016 33.8347 47.1016 34.608C47.1016 35.188 47.2176 35.5553 47.4496 35.71C47.6816 35.8647 47.9136 35.942 48.1456 35.942C49.035 35.942 50.0596 35.536 51.2196 34.724C52.4183 33.8733 53.6363 32.81 54.8736 31.534C56.111 30.258 57.2903 28.9627 58.4116 27.648C59.533 26.2947 60.4996 25.0767 61.3116 23.994C62.1623 22.9113 62.7423 22.1767 63.0516 21.79C63.477 21.9447 63.9796 22.0027 64.5596 21.964C65.1783 21.9253 65.7003 21.8867 66.1256 21.848C66.0483 21.964 65.6423 22.4473 64.9076 23.298C64.2116 24.1487 63.361 25.1733 62.3556 26.372C61.389 27.532 60.403 28.7307 59.3976 29.968C58.431 31.2053 57.619 32.288 56.9616 33.216C56.3043 34.144 55.9756 34.7627 55.9756 35.072C55.9756 35.4587 56.053 35.71 56.2076 35.826C56.401 35.9033 56.691 35.942 57.0776 35.942C57.5416 35.9033 58.2183 35.6907 59.1076 35.304C59.997 34.8787 61.1376 34.0667 62.5296 32.868C63.9216 31.6693 65.6036 29.8907 67.5756 27.532C67.5756 27.532 67.653 27.59 67.8076 27.706C68.001 27.822 68.0976 27.88 68.0976 27.88C65.7776 30.5867 63.6316 32.7133 61.6596 34.26C59.6876 35.768 57.8896 36.522 56.2656 36.522C55.415 36.522 54.835 36.3867 54.5256 36.116C54.255 35.8453 54.1196 35.4587 54.1196 34.956C54.1196 34.5693 54.2743 34.1053 54.5836 33.564C54.9316 32.984 55.3183 32.4233 55.7436 31.882C56.169 31.3407 56.517 30.9153 56.7876 30.606C56.7876 30.606 56.749 30.5867 56.6716 30.548C56.5943 30.5093 56.5556 30.49 56.5556 30.49C55.6663 31.5727 54.719 32.578 53.7136 33.506C52.7083 34.434 51.703 35.1687 50.6976 35.71C49.731 36.2513 48.7836 36.522 47.8556 36.522C46.889 36.522 46.2123 36.29 45.8256 35.826C45.439 35.3233 45.2456 34.5693 45.2456 33.564C45.2456 32.5973 45.555 31.4373 46.1736 30.084C46.7923 28.692 47.6816 27.3387 48.8416 26.024C50.0016 24.6707 51.3936 23.5493 53.0176 22.66C54.6803 21.7707 56.5363 21.326 58.5856 21.326C59.591 21.326 60.287 21.5193 60.6736 21.906C61.0603 22.254 61.2343 22.6793 61.1956 23.182C61.157 23.6847 61.041 24.1873 60.8476 24.69C60.6543 25.1927 60.4803 25.5793 60.3256 25.85ZM79.8005 36.522C77.7512 36.522 76.7265 35.9227 76.7265 34.724C76.7265 33.9507 76.9778 33.1193 77.4805 32.23C78.0218 31.3407 78.6792 30.4513 79.4525 29.562C80.2258 28.634 80.9992 27.7253 81.7725 26.836C82.5845 25.9467 83.2418 25.1347 83.7445 24.4C84.2858 23.6267 84.5565 22.9693 84.5565 22.428C84.5565 22.2347 84.4598 22.08 84.2665 21.964C84.1118 21.8093 83.8798 21.732 83.5705 21.732C83.1065 21.732 82.4492 21.964 81.5985 22.428C80.7865 22.892 79.7425 23.6847 78.4665 24.806C77.2292 25.8887 75.7598 27.358 74.0585 29.214C72.3572 31.0313 70.4045 33.3127 68.2005 36.058C67.8525 35.9807 67.3305 35.942 66.6345 35.942C65.9385 35.942 65.3392 36.0193 64.8365 36.174C65.9578 34.55 67.0598 32.9647 68.1425 31.418C69.2252 29.8713 70.2112 28.46 71.1005 27.184C72.0285 25.908 72.7632 24.864 73.3045 24.052C73.8458 23.2013 74.1165 22.6793 74.1165 22.486C74.1165 22.138 73.9425 21.964 73.5945 21.964C73.2078 21.964 72.7245 22.2733 72.1445 22.892C71.5645 23.472 70.9265 24.226 70.2305 25.154C69.5345 26.0433 68.8192 26.952 68.0845 27.88L67.5625 27.532C68.3358 26.6427 69.0898 25.7147 69.8245 24.748C70.5592 23.7813 71.3132 22.95 72.0865 22.254C72.8598 21.558 73.6718 21.21 74.5225 21.21C74.9478 21.21 75.3345 21.326 75.6825 21.558C76.0692 21.7513 76.2625 22.08 76.2625 22.544C76.2625 22.9693 76.0885 23.4913 75.7405 24.11C75.4312 24.69 75.0058 25.3667 74.4645 26.14C73.9232 26.8747 73.3045 27.706 72.6085 28.634C71.9512 29.5233 71.2552 30.49 70.5205 31.534L70.5785 31.882C72.6278 29.6393 74.3485 27.822 75.7405 26.43C77.1712 25.038 78.3505 23.9747 79.2785 23.24C80.2452 22.4667 81.0765 21.9447 81.7725 21.674C82.5072 21.3647 83.2032 21.21 83.8605 21.21C84.7498 21.21 85.3878 21.4033 85.7745 21.79C86.1612 22.138 86.3545 22.6213 86.3545 23.24C86.3545 24.168 86.0838 25.154 85.5425 26.198C85.0012 27.2033 84.3245 28.2087 83.5125 29.214C82.7392 30.1807 81.9465 31.0893 81.1345 31.94C80.3612 32.752 79.7038 33.448 79.1625 34.028C78.6212 34.608 78.3505 34.9947 78.3505 35.188C78.3505 35.42 78.4085 35.594 78.5245 35.71C78.6792 35.826 79.0465 35.884 79.6265 35.884C81.0572 35.884 82.4105 35.4393 83.6865 34.55C85.0012 33.6607 86.2578 32.578 87.4565 31.302C88.6552 29.9873 89.7765 28.692 90.8205 27.416L91.2845 27.822C90.2405 29.0593 89.0998 30.3547 87.8625 31.708C86.6252 33.0613 85.3298 34.202 83.9765 35.13C82.6232 36.058 81.2312 36.522 79.8005 36.522ZM89.5685 36.522C89.0272 36.522 88.4278 36.3673 87.7705 36.058C87.0745 35.7873 86.7265 35.3233 86.7265 34.666C86.7265 33.854 87.0938 32.8293 87.8285 31.592C88.5632 30.3547 89.4718 29.0787 90.5545 27.764C91.5985 26.4493 92.6232 25.212 93.6285 24.052C94.6338 22.892 95.3878 21.9833 95.8905 21.326C96.3158 21.3647 96.8185 21.384 97.3985 21.384C98.0172 21.384 98.5585 21.3647 99.0225 21.326C98.4812 21.9833 97.7658 22.8147 96.8765 23.82C96.0258 24.8253 95.1172 25.908 94.1505 27.068C93.2225 28.1893 92.3138 29.2913 91.4245 30.374C90.5738 31.4567 89.8778 32.4233 89.3365 33.274C88.7952 34.1247 88.5245 34.7433 88.5245 35.13C88.5245 35.4007 88.6405 35.594 88.8725 35.71C89.1045 35.826 89.4912 35.884 90.0325 35.884C90.9605 35.884 91.9852 35.536 93.1065 34.84C94.2665 34.1053 95.3878 33.2353 96.4705 32.23C97.5532 31.2247 98.5198 30.2773 99.3705 29.388C100.221 28.46 100.821 27.7833 101.169 27.358L101.633 27.764C101.285 28.1507 100.685 28.8273 99.8345 29.794C99.0225 30.722 98.0365 31.708 96.8765 32.752C95.7552 33.796 94.5565 34.6853 93.2805 35.42C92.0432 36.1547 90.8058 36.522 89.5685 36.522ZM101.169 16.918C100.705 16.918 100.357 16.7827 100.125 16.512C99.8925 16.2027 99.7765 15.8547 99.7765 15.468C99.7765 15.0427 100.009 14.598 100.473 14.134C100.937 13.67 101.42 13.438 101.923 13.438C102.464 13.438 102.851 13.5927 103.083 13.902C103.315 14.1727 103.431 14.4433 103.431 14.714C103.431 15.294 103.199 15.816 102.735 16.28C102.271 16.7053 101.749 16.918 101.169 16.918ZM99.2377 37.334C97.8844 37.334 96.8597 37.0827 96.1637 36.58C95.4677 36.0773 95.1197 35.4007 95.1197 34.55C95.1197 33.9313 95.3324 33.39 95.7577 32.926C96.1444 32.4233 96.6084 32.0367 97.1497 31.766C97.6911 31.4567 98.1164 31.302 98.4257 31.302C98.8511 31.302 99.1411 31.3987 99.2957 31.592C99.4117 31.7467 99.4697 31.9207 99.4697 32.114C99.4697 32.4233 99.2957 32.6747 98.9477 32.868C98.5611 33.0613 98.2517 33.158 98.0197 33.158C97.7491 33.158 97.5171 33.0807 97.3237 32.926C97.0917 32.7327 96.9757 32.636 96.9757 32.636C96.7824 32.6747 96.5117 32.8873 96.1637 33.274C95.8157 33.6607 95.6417 34.086 95.6417 34.55C95.6417 35.014 95.8931 35.4587 96.3957 35.884C96.8984 36.3093 97.7104 36.522 98.8317 36.522C99.9917 36.522 101.094 36.1353 102.138 35.362C103.22 34.5887 104.11 33.6027 104.806 32.404C105.502 31.2053 105.85 29.9873 105.85 28.75C105.85 28.3247 105.85 27.764 105.85 27.068C105.85 26.3333 105.85 25.734 105.85 25.27C105.85 24.69 105.946 24.0327 106.14 23.298C106.333 22.5247 106.546 21.8093 106.778 21.152C107.048 20.4947 107.261 20.0887 107.416 19.934C107.725 19.6633 107.957 19.586 108.112 19.702C108.266 19.818 108.305 19.934 108.228 20.05C108.189 20.0887 107.938 20.398 107.474 20.978C107.01 21.5193 106.43 22.196 105.734 23.008C105.038 23.82 104.342 24.632 103.646 25.444C102.95 26.256 102.331 26.9713 101.79 27.59C101.287 28.2087 100.997 28.576 100.92 28.692C100.726 28.9627 100.552 29.0207 100.398 28.866C100.243 28.7113 100.282 28.518 100.514 28.286C100.939 27.7447 101.461 27.1067 102.08 26.372C102.737 25.5987 103.394 24.8447 104.052 24.11C104.709 23.3753 105.27 22.7567 105.734 22.254C106.236 21.7127 106.507 21.4033 106.546 21.326C106.662 21.1713 106.758 20.9007 106.836 20.514C106.952 20.1273 107.087 19.76 107.242 19.412C107.435 19.064 107.667 18.89 107.938 18.89C108.595 18.89 108.924 19.122 108.924 19.586C108.924 19.934 108.653 20.3593 108.112 20.862C107.609 21.3647 107.319 21.7707 107.242 22.08C107.126 22.544 107.126 23.2013 107.242 24.052C107.396 24.864 107.551 25.792 107.706 26.836C107.899 27.88 107.996 28.982 107.996 30.142C107.996 31.6887 107.686 32.9453 107.068 33.912C106.449 34.84 105.676 35.5553 104.748 36.058C103.82 36.5607 102.853 36.8893 101.848 37.044C100.881 37.2373 100.011 37.334 99.2377 37.334ZM108.17 33.332C107.164 33.332 106.507 33.1387 106.198 32.752C105.927 32.3653 105.83 31.9207 105.908 31.418C106.024 30.8767 106.159 30.3933 106.314 29.968L106.894 30.026C106.778 30.4127 106.662 30.8187 106.546 31.244C106.468 31.6693 106.526 32.0367 106.72 32.346C106.913 32.6553 107.416 32.81 108.228 32.81C108.808 32.81 109.465 32.5393 110.2 31.998C110.934 31.4567 111.65 30.7993 112.346 30.026C113.08 29.2527 113.699 28.4987 114.202 27.764L114.724 28.17C114.221 28.7887 113.602 29.504 112.868 30.316C112.172 31.128 111.418 31.8433 110.606 32.462C109.794 33.042 108.982 33.332 108.17 33.332ZM132.854 0.852C133.318 0.929332 133.801 0.987331 134.304 1.026C134.845 1.026 135.386 0.967998 135.928 0.852C135.889 0.890666 135.56 1.35467 134.942 2.244C134.323 3.09467 133.472 4.25467 132.39 5.724C131.346 7.15467 130.166 8.77867 128.852 10.596C127.576 12.4133 126.242 14.2887 124.85 16.222C123.496 18.1167 122.162 19.9727 120.848 21.79C119.572 23.5687 118.392 25.1927 117.31 26.662C116.266 28.1313 115.434 29.3107 114.816 30.2C114.197 31.0893 113.868 31.5533 113.83 31.592C113.83 31.592 113.849 31.6307 113.888 31.708C113.926 31.7467 113.946 31.7853 113.946 31.824C114.912 30.78 115.956 29.6393 117.078 28.402C118.199 27.1647 119.34 26.0047 120.5 24.922C121.66 23.8007 122.8 22.892 123.922 22.196C125.082 21.5 126.145 21.152 127.112 21.152C128.349 21.152 129.142 21.442 129.49 22.022C129.876 22.5633 130.07 23.0467 130.07 23.472C130.07 24.284 129.799 25.1733 129.258 26.14C128.716 27.1067 128.04 28.0733 127.228 29.04C126.454 30.0067 125.662 30.9153 124.85 31.766C124.076 32.578 123.419 33.2933 122.878 33.912C122.336 34.5307 122.066 34.9753 122.066 35.246C122.066 35.5553 122.298 35.7487 122.762 35.826C123.264 35.8647 123.67 35.884 123.98 35.884C124.869 35.884 125.836 35.5553 126.88 34.898C127.924 34.2407 128.948 33.4287 129.954 32.462C130.959 31.4953 131.868 30.548 132.68 29.62C133.492 28.692 134.11 27.9573 134.536 27.416L135 27.764C134.613 28.228 134.033 28.9433 133.26 29.91C132.486 30.838 131.558 31.824 130.476 32.868C129.432 33.8733 128.291 34.7433 127.054 35.478C125.816 36.174 124.521 36.522 123.168 36.522C122.665 36.522 122.085 36.3867 121.428 36.116C120.77 35.884 120.442 35.362 120.442 34.55C120.442 33.8927 120.693 33.1387 121.196 32.288C121.737 31.3987 122.394 30.49 123.168 29.562C123.941 28.5953 124.714 27.6673 125.488 26.778C126.3 25.8887 126.957 25.0767 127.46 24.342C128.001 23.5687 128.272 22.95 128.272 22.486C128.272 21.9833 127.904 21.732 127.17 21.732C126.242 21.732 125.12 22.1767 123.806 23.066C122.53 23.9167 121.176 25.0573 119.746 26.488C118.315 27.9187 116.884 29.4653 115.454 31.128C114.062 32.7907 112.766 34.434 111.568 36.058C111.065 35.9807 110.504 35.942 109.886 35.942C109.267 35.942 108.687 36.0193 108.146 36.174C108.146 36.174 108.494 35.6907 109.19 34.724C109.886 33.7187 110.833 32.3847 112.032 30.722C113.192 29.0207 114.506 27.126 115.976 25.038C117.445 22.9113 118.953 20.746 120.5 18.542C122.046 16.2993 123.554 14.134 125.024 12.046C126.493 9.91933 127.808 8.02466 128.968 6.362C130.166 4.66067 131.114 3.32667 131.81 2.36C132.506 1.35467 132.854 0.852 132.854 0.852ZM147.042 25.85C146.888 26.1593 146.656 26.43 146.346 26.662C146.076 26.894 145.863 27.0487 145.708 27.126C145.592 27.1647 145.631 27.0487 145.824 26.778C146.52 25.9273 146.965 25.1347 147.158 24.4C147.39 23.6653 147.39 23.0853 147.158 22.66C146.965 22.196 146.578 21.964 145.998 21.964C145.225 21.964 144.316 22.2733 143.272 22.892C142.228 23.5107 141.146 24.3227 140.024 25.328C138.942 26.3333 137.917 27.416 136.95 28.576C136.022 29.6973 135.268 30.7993 134.688 31.882C134.108 32.926 133.818 33.8347 133.818 34.608C133.818 35.188 133.934 35.5553 134.166 35.71C134.398 35.8647 134.63 35.942 134.862 35.942C135.752 35.942 136.776 35.536 137.936 34.724C139.135 33.8733 140.353 32.81 141.59 31.534C142.828 30.258 144.007 28.9627 145.128 27.648C146.25 26.2947 147.216 25.0767 148.028 23.994C148.879 22.9113 149.459 22.1767 149.768 21.79C150.194 21.9447 150.696 22.0027 151.276 21.964C151.895 21.9253 152.417 21.8867 152.842 21.848C152.765 21.964 152.359 22.4473 151.624 23.298C150.928 24.1487 150.078 25.1733 149.072 26.372C148.106 27.532 147.12 28.7307 146.114 29.968C145.148 31.2053 144.336 32.288 143.678 33.216C143.021 34.144 142.692 34.7627 142.692 35.072C142.692 35.4587 142.77 35.71 142.924 35.826C143.118 35.9033 143.408 35.942 143.794 35.942C144.258 35.9033 144.935 35.6907 145.824 35.304C146.714 34.8787 147.854 34.0667 149.246 32.868C150.638 31.6693 152.32 29.8907 154.292 27.532C154.292 27.532 154.37 27.59 154.524 27.706C154.718 27.822 154.814 27.88 154.814 27.88C152.494 30.5867 150.348 32.7133 148.376 34.26C146.404 35.768 144.606 36.522 142.982 36.522C142.132 36.522 141.552 36.3867 141.242 36.116C140.972 35.8453 140.836 35.4587 140.836 34.956C140.836 34.5693 140.991 34.1053 141.3 33.564C141.648 32.984 142.035 32.4233 142.46 31.882C142.886 31.3407 143.234 30.9153 143.504 30.606C143.504 30.606 143.466 30.5867 143.388 30.548C143.311 30.5093 143.272 30.49 143.272 30.49C142.383 31.5727 141.436 32.578 140.43 33.506C139.425 34.434 138.42 35.1687 137.414 35.71C136.448 36.2513 135.5 36.522 134.572 36.522C133.606 36.522 132.929 36.29 132.542 35.826C132.156 35.3233 131.962 34.5693 131.962 33.564C131.962 32.5973 132.272 31.4373 132.89 30.084C133.509 28.692 134.398 27.3387 135.558 26.024C136.718 24.6707 138.11 23.5493 139.734 22.66C141.397 21.7707 143.253 21.326 145.302 21.326C146.308 21.326 147.004 21.5193 147.39 21.906C147.777 22.254 147.951 22.6793 147.912 23.182C147.874 23.6847 147.758 24.1873 147.564 24.69C147.371 25.1927 147.197 25.5793 147.042 25.85ZM172.886 36.464C171.494 36.464 170.373 36.2127 169.522 35.71C168.633 35.1687 168.188 34.4147 168.188 33.448C168.188 32.9453 168.381 32.52 168.768 32.172C169.116 31.7853 169.599 31.592 170.218 31.592C170.991 31.592 171.378 31.9013 171.378 32.52C171.378 32.984 171.243 33.2933 170.972 33.448C170.663 33.6027 170.411 33.68 170.218 33.68C169.831 33.68 169.561 33.6413 169.406 33.564C169.213 33.4867 169.116 33.448 169.116 33.448C169.116 33.7187 169.193 34.0473 169.348 34.434C169.503 34.782 169.812 35.1107 170.276 35.42C170.74 35.6907 171.436 35.826 172.364 35.826C173.949 35.826 175.477 35.3813 176.946 34.492C178.415 33.6027 179.827 32.4427 181.18 31.012C182.572 29.5427 183.945 27.9573 185.298 26.256C186.651 24.516 188.024 22.8147 189.416 21.152C190.073 20.3787 190.943 19.4313 192.026 18.31C193.147 17.1887 194.365 16.0093 195.68 14.772C196.995 13.5347 198.29 12.3553 199.566 11.234C200.842 10.1127 201.963 9.16533 202.93 8.392C203.239 8.16 203.491 8.00533 203.684 7.928C203.877 7.85066 203.935 7.90866 203.858 8.102C203.819 8.218 203.375 8.58533 202.524 9.204C201.712 9.82267 200.687 10.538 199.45 11.35C198.213 12.1233 196.917 12.8 195.564 13.38C194.249 13.96 193.051 14.25 191.968 14.25C191.311 14.25 190.75 14.1147 190.286 13.844C189.861 13.5347 189.648 13.0707 189.648 12.452C189.648 11.5627 189.861 10.828 190.286 10.248C190.75 9.62933 191.253 9.12667 191.794 8.74C192.374 8.35333 192.877 8.00533 193.302 7.696C193.766 7.38667 193.998 7.058 193.998 6.71C193.998 6.16866 193.766 5.80133 193.302 5.608C192.838 5.41466 192.258 5.318 191.562 5.318C190.054 5.318 188.662 5.666 187.386 6.362C186.11 7.01933 184.989 7.85067 184.022 8.856C183.094 9.82267 182.359 10.8087 181.818 11.814C181.277 12.8193 180.967 13.6507 180.89 14.308C180.851 14.656 180.735 14.7913 180.542 14.714C180.387 14.598 180.329 14.4047 180.368 14.134C180.407 13.5927 180.677 12.8193 181.18 11.814C181.683 10.8087 182.398 9.76467 183.326 8.682C184.293 7.56067 185.453 6.63267 186.806 5.898C188.198 5.12466 189.783 4.738 191.562 4.738C192.529 4.738 193.379 4.912 194.114 5.26C194.887 5.56933 195.274 6.16867 195.274 7.058C195.274 7.90867 195.042 8.66267 194.578 9.32C194.114 9.97733 193.573 10.538 192.954 11.002C192.335 11.4273 191.794 11.7947 191.33 12.104C190.866 12.4133 190.634 12.684 190.634 12.916C190.634 13.1867 190.731 13.38 190.924 13.496C191.156 13.5733 191.601 13.612 192.258 13.612C193.341 13.612 194.501 13.322 195.738 12.742C196.975 12.162 198.232 11.4273 199.508 10.538C200.784 9.64867 202.021 8.74 203.22 7.812C204.457 6.884 205.579 6.072 206.584 5.376C207.628 4.64133 208.498 4.158 209.194 3.926C209.387 3.84867 209.561 3.868 209.716 3.984C209.909 4.1 209.774 4.25467 209.31 4.448C208.034 4.95067 206.642 5.91733 205.134 7.348C203.626 8.74 202.021 10.422 200.32 12.394C198.657 14.3273 196.937 16.396 195.158 18.6C193.379 20.7653 191.543 22.9113 189.648 25.038C187.792 27.126 185.917 29.04 184.022 30.78C182.166 32.4813 180.291 33.854 178.396 34.898C176.54 35.942 174.703 36.464 172.886 36.464ZM222.94 8.624C222.94 8.31467 223.114 8.044 223.462 7.812C223.81 7.54133 224.139 7.406 224.448 7.406C224.719 7.406 224.951 7.44466 225.144 7.522C225.376 7.59933 225.492 7.638 225.492 7.638C225.685 7.21267 225.589 6.71 225.202 6.13C224.854 5.51133 224.216 5.202 223.288 5.202C222.012 5.202 220.775 5.55 219.576 6.246C218.377 6.942 217.179 7.85066 215.98 8.972C214.781 10.0547 213.505 11.2147 212.152 12.452C210.683 13.844 209.097 15.1973 207.396 16.512C205.733 17.8267 204.071 18.9093 202.408 19.76C200.784 20.572 199.295 20.978 197.942 20.978C197.362 20.978 196.782 20.8813 196.202 20.688C195.661 20.456 195.39 20.166 195.39 19.818C195.39 19.47 195.641 19.2187 196.144 19.064C196.685 18.8707 197.246 18.774 197.826 18.774C198.213 18.774 198.677 18.832 199.218 18.948C199.798 19.064 200.32 19.3347 200.784 19.76C201.248 20.1853 201.48 20.8813 201.48 21.848C201.48 23.2013 201.209 24.458 200.668 25.618C200.127 26.778 199.45 27.822 198.638 28.75C197.865 29.678 197.072 30.5287 196.26 31.302C195.448 32.0367 194.771 32.694 194.23 33.274C193.689 33.8153 193.418 34.2987 193.418 34.724C193.418 35.188 193.631 35.4973 194.056 35.652C194.481 35.8067 194.887 35.884 195.274 35.884C196.511 35.884 197.729 35.4973 198.928 34.724C200.127 33.912 201.209 32.926 202.176 31.766C203.143 30.5673 203.935 29.3493 204.554 28.112C205.173 26.8747 205.521 25.8307 205.598 24.98C205.637 24.6707 205.714 24.5547 205.83 24.632C205.985 24.6707 206.081 24.864 206.12 25.212C206.197 26.1787 205.907 27.3 205.25 28.576C204.593 29.852 203.703 31.1087 202.582 32.346C201.499 33.5447 200.301 34.55 198.986 35.362C197.671 36.1353 196.395 36.522 195.158 36.522C194.385 36.522 193.708 36.348 193.128 36C192.548 35.652 192.258 35.0527 192.258 34.202C192.258 33.1193 192.529 32.0947 193.07 31.128C193.611 30.1227 194.288 29.1753 195.1 28.286C195.951 27.358 196.782 26.4687 197.594 25.618C198.406 24.7673 199.083 23.9747 199.624 23.24C200.165 22.4667 200.436 21.732 200.436 21.036C200.436 20.4947 200.281 20.108 199.972 19.876C199.663 19.6053 199.315 19.4313 198.928 19.354C198.541 19.2767 198.232 19.238 198 19.238C197.652 19.238 197.304 19.2767 196.956 19.354C196.608 19.4313 196.434 19.5667 196.434 19.76C196.434 19.9147 196.569 20.05 196.84 20.166C197.149 20.282 197.497 20.34 197.884 20.34C199.237 20.34 200.513 19.876 201.712 18.948C202.911 18.02 204.148 16.8793 205.424 15.526C206.739 14.134 208.15 12.7613 209.658 11.408C211.011 10.1707 212.461 9.04933 214.008 8.044C215.593 7.03867 217.179 6.246 218.764 5.666C220.388 5.04733 221.896 4.738 223.288 4.738C224.061 4.738 224.757 4.93133 225.376 5.318C225.995 5.666 226.304 6.28466 226.304 7.174C226.304 7.90867 226.091 8.54667 225.666 9.088C225.241 9.59067 224.738 9.842 224.158 9.842C223.346 9.842 222.94 9.436 222.94 8.624ZM216.48 35.652C215.822 36.3093 215.204 36.638 214.624 36.638C214.044 36.638 213.618 36.4833 213.348 36.174C212.922 35.7487 212.768 35.246 212.884 34.666C213.038 34.086 213.29 33.622 213.638 33.274C214.179 32.7713 214.759 32.52 215.378 32.52C216.538 32.52 217.118 33.0807 217.118 34.202C217.118 34.8207 216.905 35.304 216.48 35.652Z" fill="#001A1B"/>
</svg>
